<?xml version="1.0" encoding="UTF-8"?><svg id="_ÎÓÈ_1" xmlns="http://www.w3.org/2000/svg" viewBox="0 0 411 662"><defs><style>.cls-1{stroke-width:0px;}</style></defs><path class="cls-1" d="m0,641.5h0c0,11.32,9.18,20.5,20.5,20.5h370c11.32,0,20.5-9.18,20.5-20.5h0c0-11.32-9.18-20.5-20.5-20.5H20.5c-11.32,0-20.5,9.18-20.5,20.5Z"/><path class="cls-1" d="m351.02,128c9.38,0,16.98-7.6,16.98-16.98v-.03c0-9.38-7.6-16.98-16.98-16.98h-15.6l-17.81-66.97c-4.23-15.92-18.69-27.03-35.17-27.03h-154.32c-16.71,0-31.23,11.32-35.29,27.54l-16.67,66.46h-16.17c-9.38,0-16.98,7.6-16.98,16.98v.03c0,9.38,7.6,16.98,16.98,16.98h291.03ZM128.12,39h154.32c2.44,0,4.58,1.65,5.21,4l13.56,51H110.12l12.77-50.92c.6-2.4,2.75-4.08,5.23-4.08Z"/><path class="cls-1" d="m387.96,602l-40.96-455H60l-40.96,455h368.91Zm-35.96-79c0,8.56-6.94,15.5-15.5,15.5h-.5c-8.56,0-15.5-6.94-15.5-15.5s6.94-15.5,15.5-15.5h.5c8.56,0,15.5,6.94,15.5,15.5Zm-9-76.38c0,8.56-6.94,15.5-15.5,15.5h-.5c-8.56,0-15.5-6.94-15.5-15.5s6.94-15.5,15.5-15.5h.5c8.56,0,15.5,6.94,15.5,15.5Zm-6-76.38c0,8.56-6.94,15.5-15.5,15.5h-.5c-8.56,0-15.5-6.94-15.5-15.5s6.94-15.5,15.5-15.5h.5c8.56,0,15.5,6.94,15.5,15.5Zm-5-76.38c0,8.56-6.94,15.5-15.5,15.5h-.5c-8.56,0-15.5-6.94-15.5-15.5s6.94-15.5,15.5-15.5h.5c8.56,0,15.5,6.94,15.5,15.5Zm-23-91.88h.5c8.56,0,15.5,6.94,15.5,15.5s-6.94,15.5-15.5,15.5h-.5c-8.56,0-15.5-6.94-15.5-15.5s6.94-15.5,15.5-15.5Zm-23.17,321c0,8.56-6.94,15.5-15.5,15.5h-1.11c-8.56,0-15.5-6.94-15.5-15.5s6.94-15.5,15.5-15.5h1.11c8.56,0,15.5,6.94,15.5,15.5Zm-21.04-60.88h-1.05c-8.56,0-15.5-6.94-15.5-15.5s6.94-15.5,15.5-15.5h1.05c8.56,0,15.5,6.94,15.5,15.5s-6.94,15.5-15.5,15.5Zm-3.04-76.38h-1c-8.56,0-15.5-6.94-15.5-15.5s6.94-15.5,15.5-15.5h1c8.56,0,15.5,6.94,15.5,15.5s-6.94,15.5-15.5,15.5Zm-2.28-76.38h-.96c-8.56,0-15.5-6.94-15.5-15.5s6.94-15.5,15.5-15.5h.96c8.56,0,15.5,6.94,15.5,15.5s-6.94,15.5-15.5,15.5Zm-4.44-107.38h.9c8.56,0,15.5,6.94,15.5,15.5s-6.94,15.5-15.5,15.5h-.9c-8.56,0-15.5-6.94-15.5-15.5s6.94-15.5,15.5-15.5Zm-51.47,336.5h-1.11c-8.56,0-15.5-6.94-15.5-15.5s6.94-15.5,15.5-15.5h1.11c8.56,0,15.5,6.94,15.5,15.5s-6.94,15.5-15.5,15.5Zm-2.51-336.5h.9c8.56,0,15.5,6.94,15.5,15.5s-6.94,15.5-15.5,15.5h-.9c-8.56,0-15.5-6.94-15.5-15.5s6.94-15.5,15.5-15.5Zm-.03,76.38h.96c8.56,0,15.5,6.94,15.5,15.5s-6.94,15.5-15.5,15.5h-.96c-8.56,0-15.5-6.94-15.5-15.5s6.94-15.5,15.5-15.5Zm-.52,76.38h1c8.56,0,15.5,6.94,15.5,15.5s-6.94,15.5-15.5,15.5h-1c-8.56,0-15.5-6.94-15.5-15.5s6.94-15.5,15.5-15.5Zm-.03,76.38h1.05c8.56,0,15.5,6.94,15.5,15.5s-6.94,15.5-15.5,15.5h-1.05c-8.56,0-15.5-6.94-15.5-15.5s6.94-15.5,15.5-15.5Zm-53.4-229.12h.9c8.56,0,15.5,6.94,15.5,15.5s-6.94,15.5-15.5,15.5h-.9c-8.56,0-15.5-6.94-15.5-15.5s6.94-15.5,15.5-15.5Zm-3.54,76.38h.96c8.56,0,15.5,6.94,15.5,15.5s-6.94,15.5-15.5,15.5h-.96c-8.56,0-15.5-6.94-15.5-15.5s6.94-15.5,15.5-15.5Zm-3.28,76.38h1c8.56,0,15.5,6.94,15.5,15.5s-6.94,15.5-15.5,15.5h-1c-8.56,0-15.5-6.94-15.5-15.5s6.94-15.5,15.5-15.5Zm-3.04,76.38h1.05c8.56,0,15.5,6.94,15.5,15.5s-6.94,15.5-15.5,15.5h-1.05c-8.56,0-15.5-6.94-15.5-15.5s6.94-15.5,15.5-15.5Zm-1.54,76.38h1.11c8.56,0,15.5,6.94,15.5,15.5s-6.94,15.5-15.5,15.5h-1.11c-8.56,0-15.5-6.94-15.5-15.5s6.94-15.5,15.5-15.5Zm-42.16-305.5h.5c8.56,0,15.5,6.94,15.5,15.5s-6.94,15.5-15.5,15.5h-.5c-8.56,0-15.5-6.94-15.5-15.5s6.94-15.5,15.5-15.5Zm-7,76.38h.5c8.56,0,15.5,6.94,15.5,15.5s-6.94,15.5-15.5,15.5h-.5c-8.56,0-15.5-6.94-15.5-15.5s6.94-15.5,15.5-15.5Zm-6,76.38h.5c8.56,0,15.5,6.94,15.5,15.5s-6.94,15.5-15.5,15.5h-.5c-8.56,0-15.5-6.94-15.5-15.5s6.94-15.5,15.5-15.5Zm-6,76.38h.5c8.56,0,15.5,6.94,15.5,15.5s-6.94,15.5-15.5,15.5h-.5c-8.56,0-15.5-6.94-15.5-15.5s6.94-15.5,15.5-15.5Zm-5,76.38h.5c8.56,0,15.5,6.94,15.5,15.5s-6.94,15.5-15.5,15.5h-.5c-8.56,0-15.5-6.94-15.5-15.5s6.94-15.5,15.5-15.5Z"/></svg>